<?xml version="1.0" encoding="UTF-8"?>
<svg id="Livello_1" xmlns="http://www.w3.org/2000/svg" version="1.1" viewBox="0 0 512 512">
  <!-- Generator: Adobe Illustrator 29.5.0, SVG Export Plug-In . SVG Version: 2.1.0 Build 137)  -->
  <defs>
    <style>
      .st0 {
        fill: #d7212e;
      }

      .st1 {
        fill: #fff;
      }
    </style>
  </defs>
  <circle class="st0" cx="256" cy="256" r="246.4"/>
  <g>
    <path class="st1" d="M145.2,147.1c1.5-18.2,6.8-35.7,16.7-50.1h-21.2c-22.8,44-17.5,99.4,17.5,138.9l19.7,22.8-56.2,48.6c-30.4,26.6-33.4,72.1-7.6,102.5,14.4,16.7,34.9,25,55.4,25s34.2-6.1,47.8-17.5l47.1-40.2h0l5.3-4.6,4.6-3.8,50.8,57.7h25l-178.3-201.9c-19-21.2-28.1-48.6-25.8-76.7l-.8-.8ZM204.4,403.6c-9.9,8.3-22.8,12.9-35.7,12.9s-30.4-6.8-41-19c-19.7-22.8-17.5-56.9,5.3-76.7l9.9-9.1c-2.3,19.7,3,41,17.5,56.9,14.4,15.9,34.2,25,53.9,25l-9.9,9.1v.8ZM189.2,272.3l72.1,81.2-9.9,8.3c-9.9,8.3-22.8,12.9-35.7,12.9s-30.4-6.8-41-19c-19.7-22.8-17.5-56.9,5.3-76.7l9.1-8.3v1.5Z"/>
    <path class="st1" d="M325.1,323.2l38.7-33.4h0l-12.9-13.7-38.7,33.4-104.7-119.2s0-.8-.8-1.5h0c-3.8-5.3-6.1-11.4-6.1-18.2,0-16.7,13.7-31.1,31.1-31.1s31.1,13.7,31.1,31.1-1.5,10.6-4.6,15.2l13.7,14.4,53.9-46.3,15.2-11.4h0l-10.6-12.1-2.3-3h0l-22-25c-14.4-16.7-35.7-25-56.2-25s-34.9,6.1-49.3,19c-31.1,27.3-34.2,74.4-6.8,105.5l196.6,223.1h25l-90.3-102.5v.8ZM212.7,111.4c10.6-9.1,23.5-13.7,37.2-13.7s31.1,6.8,41.7,19l22,24.3-32.6,28.1c-.8-26.6-22.8-47.1-49.3-47.1s-26.6,6.1-35.7,15.2c3-9.9,8.3-18.2,16.7-25.8h0Z"/>
  </g>
</svg>