<?xml version="1.0" encoding="UTF-8"?>
<svg id="Livello_1" xmlns="http://www.w3.org/2000/svg" version="1.1" viewBox="0 0 640 512">
  <!-- Generator: Adobe Illustrator 29.5.1, SVG Export Plug-In . SVG Version: 2.1.0 Build 141)  -->
  <defs>
    <style>
      .st0 {
        fill: #d7212e;
      }
    </style>
  </defs>
  <path class="st0" d="M224,256c70.7,0,128-57.3,128-128S294.7,0,224,0,96,57.3,96,128s57.3,128,128,128ZM178.3,304C79.8,304,0,383.8,0,482.3s13.3,29.7,29.7,29.7h362.8c-5.4-9.4-8.6-20.3-8.6-32v-128c0-2.1.1-4.2.3-6.3-31-26-71-41.7-114.6-41.7h-91.4.1ZM528,240c17.7,0,32,14.3,32,32v48h-64v-48c0-17.7,14.3-32,32-32ZM448,272v48c-17.7,0-32,14.3-32,32v128c0,17.7,14.3,32,32,32h160c17.7,0,32-14.3,32-32v-128c0-17.7-14.3-32-32-32v-48c0-44.2-35.8-80-80-80s-80,35.8-80,80Z"/>
</svg>