<?xml version="1.0" encoding="UTF-8"?>
<svg id="Livello_1" xmlns="http://www.w3.org/2000/svg" version="1.1" viewBox="0 0 110.3 22.8">
  <!-- Generator: Adobe Illustrator 29.5.0, SVG Export Plug-In . SVG Version: 2.1.0 Build 137)  -->
  <defs>
    <style>
      .st0 {
        fill: #999;
      }
    </style>
  </defs>
  <path class="st0" d="M20.9,10.8h-9.6v2.7h6.5c-.8,3.3-3.1,5.4-6.3,5.4s-7.5-3.4-7.5-7.5,3.4-7.5,7.5-7.5,3.8.8,5.1,2l2.1-1.8c-1.9-1.8-4.4-3-7.2-3C5.8,1.1,1.2,5.7,1.2,11.4s4.6,10.3,10.3,10.3,9.4-4.2,9.4-9.9v-1.1Z"/>
  <path class="st0" d="M43.5,9.3c-.9-.1-1.8-.3-2.8-.4-.8-.1-1.6-.2-2.4-.3-.8-1.5-1.5-2.9-2.3-4.4-.8,1.4-1.5,2.9-2.3,4.4-1.2.2-2.4.3-3.5.5-.5,0-1.1.2-1.6.2.4.4.8.7,1.1,1.1.4.4.9.8,1.4,1.3.4.4.9.8,1.3,1.3,0,.2,0,.3-.1.5-.4,1.6-.7,3.2-1.1,4.8.3-.2.6-.3.9-.5,1.3-.7,2.6-1.4,3.9-2.1,0,0,.1,0,.2,0,1.6.9,3.1,1.7,4.7,2.6-.4-1.8-.8-3.5-1.2-5.3,1.3-1.2,2.6-2.4,3.8-3.6Z"/>
  <path class="st0" d="M59.9,9.3c-.9-.1-1.8-.3-2.8-.4-.8-.1-1.6-.2-2.4-.3-.8-1.5-1.5-2.9-2.3-4.4-.8,1.4-1.5,2.9-2.3,4.4-1.2.2-2.4.3-3.5.5-.5,0-1.1.2-1.6.2.4.4.8.7,1.1,1.1.4.4.9.8,1.4,1.3.4.4.9.8,1.3,1.3,0,.2,0,.3-.1.5-.4,1.6-.7,3.2-1.1,4.8.3-.2.6-.3.9-.5,1.3-.7,2.6-1.4,3.9-2.1,0,0,.1,0,.2,0,1.6.9,3.1,1.7,4.7,2.6-.4-1.8-.8-3.5-1.2-5.3,1.3-1.2,2.6-2.4,3.8-3.6Z"/>
  <path class="st0" d="M76.3,9.3c-.9-.1-1.8-.3-2.8-.4-.8-.1-1.6-.2-2.4-.3-.8-1.5-1.5-2.9-2.3-4.4-.8,1.4-1.5,2.9-2.3,4.4-1.2.2-2.4.3-3.5.5-.5,0-1.1.2-1.6.2.4.4.8.7,1.1,1.1.4.4.9.8,1.4,1.3.4.4.9.8,1.3,1.3,0,.2,0,.3-.1.5-.4,1.6-.7,3.2-1.1,4.8.3-.2.6-.3.9-.5,1.3-.7,2.6-1.4,3.9-2.1,0,0,.1,0,.2,0,1.6.9,3.1,1.7,4.7,2.6-.4-1.8-.8-3.5-1.2-5.3,1.3-1.2,2.6-2.4,3.8-3.6Z"/>
  <path class="st0" d="M92.7,9.3c-.9-.1-1.8-.3-2.8-.4-.8-.1-1.6-.2-2.4-.3-.8-1.5-1.5-2.9-2.3-4.4-.8,1.4-1.5,2.9-2.3,4.4-1.2.2-2.4.3-3.5.5-.5,0-1.1.2-1.6.2.4.4.8.7,1.1,1.1.4.4.9.8,1.4,1.3.4.4.9.8,1.3,1.3,0,.2,0,.3-.1.5-.4,1.6-.7,3.2-1.1,4.8.3-.2.6-.3.9-.5,1.3-.7,2.6-1.4,3.9-2.1,0,0,.1,0,.2,0,1.6.9,3.1,1.7,4.7,2.6-.4-1.8-.8-3.5-1.2-5.3,1.3-1.2,2.6-2.4,3.8-3.6Z"/>
  <path class="st0" d="M109.1,9.3c-.9-.1-1.8-.3-2.8-.4-.8-.1-1.6-.2-2.4-.3-.8-1.5-1.5-2.9-2.3-4.4-.8,1.4-1.5,2.9-2.3,4.4-1.2.2-2.4.3-3.5.5-.5,0-1.1.2-1.6.2.4.4.8.7,1.1,1.1.4.4.9.8,1.4,1.3.4.4.9.8,1.3,1.3,0,.2,0,.3-.1.5-.4,1.6-.7,3.2-1.1,4.8.3-.2.6-.3.9-.5,1.3-.7,2.6-1.4,3.9-2.1,0,0,.1,0,.2,0,1.6.9,3.1,1.7,4.7,2.6-.4-1.8-.8-3.5-1.2-5.3,1.3-1.2,2.6-2.4,3.8-3.6Z"/>
</svg>