<?xml version="1.0" encoding="UTF-8"?>
<svg id="Livello_1" xmlns="http://www.w3.org/2000/svg" version="1.1" viewBox="0 0 290.1 49.1">
  <!-- Generator: Adobe Illustrator 29.5.0, SVG Export Plug-In . SVG Version: 2.1.0 Build 137)  -->
  <defs>
    <style>
      .st0 {
        fill: #d7212e;
      }
    </style>
  </defs>
  <g>
    <path d="M1.9,16.8c1.2.1,2.5.2,3.8.2s2.6,0,3.8-.2v.8c-.4-.1-.8-.1-1-.1-1.1,0-1.3.5-1.3,1.8,0,.2-.2,3.7-.2,9.4s0,4.1,0,4.7c.1,1.2.2,1.7,1.3,1.7s.5,0,.9-.1v.8c-1.1,0-2.6-.2-3.8-.2s-2.6,0-3.8.2v-.8c.3,0,.5.1.9.1,1.5,0,1.5-1.1,1.6-3.3,0-3.9.1-7.2.1-9.2,0-3.5,0-4.3-.4-4.7-.3-.3-.6-.4-1-.4s-.6,0-1,.1v-.8Z"/>
    <path d="M18.2,19.6c0-2-.3-2.2-1.3-2.2s-.8,0-1.1.1v-.8c.8,0,1.8.2,2.7.2s1.9-.1,2.5-.2c.8,2.3,6.8,13.3,7.7,14.4v-6.9c0-6.7-.4-6.8-1.6-6.8s-.6,0-.9.1v-.8c.6,0,2.1.2,3.2.2s2.1,0,2.6-.2v.8c-.3,0-.6-.1-.8-.1-1,0-1.4.3-1.5,3.1,0,5-.1,9.8-.1,15-.3,0-.5,0-1.5.2-4.5-7.4-7.9-14.1-9-15.9v8.6c0,6.2.3,6.8,1.8,6.8s.5,0,.7-.1v.8c-.6,0-1.3-.2-2.4-.2s-2.8,0-3.6.2v-.8c.2,0,.4.1.7.1s.7-.1,1-.4c.5-.5.8-1,.8-9.4v-5.6Z"/>
    <path d="M46.2,35.8c-1.1,0-2.3-.2-3.8-.2s-3.7,0-4.7.2v-.8c.3,0,.5.1.8.1.6,0,.9-.2,1-.3.7-.6.7-2.3.7-8.1v-2.8c0-5.1,0-5.7-.5-6.2-.2-.2-.5-.2-1-.2s-.7,0-1,.1v-.8c.7,0,2.3.2,5.2.2,2.9,0,6.9-.1,7.9-.2-.3,2.1-.5,3.2-.5,4.9h-1c.2-4.1-1.5-4.1-4.2-4.1s-1.7,0-1.9,0c0,1.4-.1,2.6-.1,3.9v4c0,0,1.5,0,1.5,0,1.8,0,2.2-1.2,2.2-2.9h1c-.2,1-.3,3.2-.3,5.2s0,1.4,0,1.7h-1v-.4c0-1.9-.6-2.6-2.4-2.6h-1.2v4.9c0,3.2,0,4,1.8,4s1,0,1.4-.1v.8Z"/>
    <path d="M56,16.8c1.2.1,2.5.2,3.8.2s2.6,0,3.8-.2v.8c-.4-.1-.8-.1-1-.1-1.1,0-1.3.5-1.3,1.8,0,.2-.2,3.7-.2,9.4s0,4.1,0,4.7c.1,1.2.2,1.7,1.3,1.7s.5,0,.9-.1v.8c-1.1,0-2.6-.2-3.8-.2s-2.6,0-3.8.2v-.8c.3,0,.5.1.9.1,1.5,0,1.5-1.1,1.6-3.3,0-3.9.1-7.2.1-9.2,0-3.5,0-4.3-.4-4.7-.3-.3-.6-.4-1-.4s-.6,0-1,.1v-.8Z"/>
    <path d="M71.2,30.6c0,2.8,1.1,4.3,3.7,4.3s3.1-.8,3.1-2.5c0-2.5-3.5-4.4-5.6-6.4-1-1-2.2-2.6-2.2-4.7s.4-2.4,1.3-3.3c.9-.9,2.1-1.3,4.3-1.3s2.3.2,3.1.2.7,0,1-.2c-.2,1.1-.5,3.9-.6,5h-1c.3-3.6-1.4-4.2-3.2-4.2s-2.7,1.2-2.7,2.6.9,2.4,1.8,3.3c3.3,3.3,6,4.3,6,7.6s-1.1,4.7-5.4,4.7-1.1,0-1.7-.1c-.6,0-1.2,0-2,0s-.8,0-1,.2c0-1.6,0-2.9,0-5.1h1Z"/>
    <path d="M88.5,30.6c0,2.8,1.1,4.3,3.7,4.3s3.1-.8,3.1-2.5c0-2.5-3.5-4.4-5.6-6.4-1-1-2.2-2.6-2.2-4.7s.4-2.4,1.3-3.3c.9-.9,2.1-1.3,4.3-1.3s2.3.2,3.1.2.7,0,1-.2c-.2,1.1-.5,3.9-.6,5h-1c.3-3.6-1.4-4.2-3.2-4.2s-2.7,1.2-2.7,2.6.9,2.4,1.8,3.3c3.3,3.3,6,4.3,6,7.6s-1.1,4.7-5.4,4.7-1.1,0-1.7-.1c-.6,0-1.2,0-2,0s-.8,0-1,.2c0-1.6,0-2.9,0-5.1h1Z"/>
    <path d="M104,16.8c1.2.1,2.5.2,3.8.2s2.6,0,3.8-.2v.8c-.4-.1-.8-.1-1-.1-1.1,0-1.3.5-1.3,1.8,0,.2-.2,3.7-.2,9.4s0,4.1,0,4.7c.1,1.2.2,1.7,1.3,1.7s.5,0,.9-.1v.8c-1.1,0-2.6-.2-3.8-.2s-2.6,0-3.8.2v-.8c.3,0,.5.1.9.1,1.5,0,1.5-1.1,1.6-3.3,0-3.9.1-7.2.1-9.2,0-3.5,0-4.3-.4-4.7-.3-.3-.6-.4-1-.4s-.6,0-1,.1v-.8Z"/>
  </g>
  <g>
    <path d="M178.6,16.8c1.2.1,2.5.2,3.8.2s2.6,0,3.8-.2v.8c-.4-.1-.8-.1-1-.1-1.1,0-1.3.5-1.3,1.8,0,.2-.2,3.7-.2,9.4s0,4.1,0,4.7c.1,1.2.2,1.7,1.3,1.7s.5,0,.9-.1v.8c-1.1,0-2.6-.2-3.8-.2s-2.6,0-3.8.2v-.8c.3,0,.5.1.9.1,1.5,0,1.5-1.1,1.6-3.3,0-3.9.1-7.2.1-9.2,0-3.5,0-4.3-.4-4.7-.3-.3-.6-.4-1-.4s-.6,0-1,.1v-.8Z"/>
    <path d="M194.9,19.6c0-2-.3-2.2-1.3-2.2s-.8,0-1.1.1v-.8c.8,0,1.8.2,2.7.2s1.9-.1,2.5-.2c.8,2.3,6.8,13.3,7.7,14.4v-6.9c0-6.7-.4-6.8-1.6-6.8s-.6,0-.9.1v-.8c.6,0,2.1.2,3.2.2s2.1,0,2.6-.2v.8c-.3,0-.6-.1-.8-.1-1,0-1.4.3-1.5,3.1,0,5-.1,9.8-.1,15-.3,0-.5,0-1.5.2-4.5-7.4-7.9-14.1-9-15.9v8.6c0,6.2.3,6.8,1.8,6.8s.5,0,.7-.1v.8c-.6,0-1.3-.2-2.4-.2s-2.8,0-3.6.2v-.8c.2,0,.4.1.7.1s.7-.1,1-.4c.5-.5.8-1,.8-9.4v-5.6Z"/>
    <path d="M222.9,35.8c-1.1,0-2.3-.2-3.8-.2s-3.7,0-4.7.2v-.8c.3,0,.5.1.8.1.6,0,.9-.2,1-.3.7-.6.7-2.3.7-8.1v-2.8c0-5.1,0-5.7-.5-6.2-.2-.2-.5-.2-1-.2s-.7,0-1,.1v-.8c.7,0,2.3.2,5.2.2,2.9,0,6.9-.1,7.9-.2-.3,2.1-.5,3.2-.5,4.9h-1c.2-4.1-1.5-4.1-4.2-4.1s-1.7,0-1.9,0c0,1.4-.1,2.6-.1,3.9v4c0,0,1.5,0,1.5,0,1.8,0,2.2-1.2,2.2-2.9h1c-.2,1-.3,3.2-.3,5.2s0,1.4,0,1.7h-1v-.4c0-1.9-.6-2.6-2.4-2.6h-1.2v4.9c0,3.2,0,4,1.8,4s1,0,1.4-.1v.8Z"/>
    <path d="M232.7,16.8c1.2.1,2.5.2,3.8.2s2.6,0,3.8-.2v.8c-.4-.1-.8-.1-1-.1-1.1,0-1.3.5-1.3,1.8,0,.2-.2,3.7-.2,9.4s0,4.1,0,4.7c.1,1.2.2,1.7,1.3,1.7s.5,0,.9-.1v.8c-1.1,0-2.6-.2-3.8-.2s-2.6,0-3.8.2v-.8c.3,0,.5.1.9.1,1.5,0,1.5-1.1,1.6-3.3,0-3.9.1-7.2.1-9.2,0-3.5,0-4.3-.4-4.7-.3-.3-.6-.4-1-.4s-.6,0-1,.1v-.8Z"/>
    <path d="M247.9,30.6c0,2.8,1.1,4.3,3.7,4.3s3.1-.8,3.1-2.5c0-2.5-3.5-4.4-5.6-6.4-1-1-2.2-2.6-2.2-4.7s.4-2.4,1.3-3.3c.9-.9,2.1-1.3,4.3-1.3s2.3.2,3.1.2.7,0,1-.2c-.2,1.1-.5,3.9-.6,5h-1c.3-3.6-1.4-4.2-3.2-4.2s-2.7,1.2-2.7,2.6.9,2.4,1.8,3.3c3.3,3.3,6,4.3,6,7.6s-1.1,4.7-5.4,4.7-1.1,0-1.7-.1c-.6,0-1.2,0-2,0s-.8,0-1,.2c0-1.6,0-2.9,0-5.1h1Z"/>
    <path d="M265.2,30.6c0,2.8,1.1,4.3,3.7,4.3s3.1-.8,3.1-2.5c0-2.5-3.5-4.4-5.6-6.4-1-1-2.2-2.6-2.2-4.7s.4-2.4,1.3-3.3c.9-.9,2.1-1.3,4.3-1.3s2.3.2,3.1.2.7,0,1-.2c-.2,1.1-.5,3.9-.6,5h-1c.3-3.6-1.4-4.2-3.2-4.2s-2.7,1.2-2.7,2.6.9,2.4,1.8,3.3c3.3,3.3,6,4.3,6,7.6s-1.1,4.7-5.4,4.7-1.1,0-1.7-.1c-.6,0-1.2,0-2,0s-.8,0-1,.2c0-1.6,0-2.9,0-5.1h1Z"/>
    <path d="M280.8,16.8c1.2.1,2.5.2,3.8.2s2.6,0,3.8-.2v.8c-.4-.1-.8-.1-1-.1-1.1,0-1.3.5-1.3,1.8,0,.2-.2,3.7-.2,9.4s0,4.1,0,4.7c.1,1.2.2,1.7,1.3,1.7s.5,0,.9-.1v.8c-1.1,0-2.6-.2-3.8-.2s-2.6,0-3.8.2v-.8c.3,0,.5.1.9.1,1.5,0,1.5-1.1,1.6-3.3,0-3.9.1-7.2.1-9.2,0-3.5,0-4.3-.4-4.7-.3-.3-.6-.4-1-.4s-.6,0-1,.1v-.8Z"/>
  </g>
  <g>
    <path class="st0" d="M132.2,10.1c.2-2.4.9-4.7,2.2-6.6h-2.8c-3,5.8-2.3,13.1,2.3,18.3l2.6,3-7.4,6.4c-4,3.5-4.4,9.5-1,13.5,1.9,2.2,4.6,3.3,7.3,3.3s4.5-.8,6.3-2.3l6.2-5.3s0,0,0,0l.7-.6.6-.5,6.7,7.6h3.3l-23.5-26.6c-2.5-2.8-3.7-6.4-3.4-10.1ZM140,43.9c-1.3,1.1-3,1.7-4.7,1.7s-4-.9-5.4-2.5c-2.6-3-2.3-7.5.7-10.1l1.3-1.2c-.3,2.6.4,5.4,2.3,7.5,1.9,2.1,4.5,3.3,7.1,3.3l-1.3,1.2ZM138,26.6l9.5,10.7-1.3,1.1c-1.3,1.1-3,1.7-4.7,1.7s-4-.9-5.4-2.5c-2.6-3-2.3-7.5.7-10.1l1.2-1.1Z"/>
    <path class="st0" d="M155.9,33.3l5.1-4.4h0s-1.7-1.8-1.7-1.8l-5.1,4.4-13.8-15.7s0-.1-.1-.2c0,0,0,0,0,0-.5-.7-.8-1.5-.8-2.4,0-2.2,1.8-4.1,4.1-4.1s4.1,1.8,4.1,4.1-.2,1.4-.6,2l1.8,1.9,7.1-6.1,2-1.5s0,0,0,0l-1.4-1.6-.3-.4h0s-2.9-3.3-2.9-3.3c-1.9-2.2-4.7-3.3-7.4-3.3-2.3,0-4.6.8-6.5,2.5-4.1,3.6-4.5,9.8-.9,13.9l25.9,29.4h3.3l-11.9-13.5ZM141.1,5.4c1.4-1.2,3.1-1.8,4.9-1.8,2.1,0,4.1.9,5.5,2.5l2.9,3.2-4.3,3.7c-.1-3.5-3-6.2-6.5-6.2s-3.5.8-4.7,2c.4-1.3,1.1-2.4,2.2-3.4Z"/>
  </g>
</svg>